# xmcd
#
# Track frame offsets:
#	150
#	12311
#	25957
#	47846
#	69700
#	87154
#	114026
#	127089
#	139135
#	162255
#	182630
#
# Disc length: 2693 seconds
# Revision: 0
# Processed by: cddbd v1.5.2PL0 Copyright (c) Steve Scherf et al.
# Submitted via: dBpowerAMP V12.0
#
DISCID=910a830b
DTITLE=Al and Ann -  Rope and Tie
DYEAR=2011
DGENRE=Country
TTITLE0=Rope and Tie
TTITLE1=Tango Wrangler
TTITLE2=Four More Bodies
TTITLE3=Rocking Chair
TTITLE4=Highway 59
TTITLE5=I Fall Down
TTITLE6=Waltzing Clown
TTITLE7=Chocolate Pie
TTITLE8=Winos in the Theater
TTITLE9=Hank Williams
TTITLE10=Wild World
EXTD=
EXTT0=
EXTT1=
EXTT2=
EXTT3=
EXTT4=
EXTT5=
EXTT6=
EXTT7=
EXTT8=
EXTT9=
EXTT10=
PLAYORDER=
